<svg width="100" height="100" viewBox="0 0 100 100" fill="none" xmlns="http://www.w3.org/2000/svg">
<rect width="100" height="100" fill="white"/>
<g clip-path="url(#clip0_1056_6673)">
<path d="M50.0825 28.93C51.1725 29.16 54.6825 29.93 60.8425 31.53C65.1625 32.64 67.8425 33.36 69.2425 33.75C68.9674 40.2269 68.0053 46.6563 66.3725 52.93C64.0125 62.52 55.6225 68.14 50.0825 71.59C44.5325 68.14 36.0825 62.52 33.7825 52.93C32.1549 46.6552 31.193 40.2264 30.9125 33.75C32.3425 33.36 35.0125 32.64 39.3125 31.53C45.4725 29.94 49.0125 29.16 50.0825 28.93ZM50.0825 27C50.0825 27 46.5325 27.71 38.8425 29.7C31.5725 31.57 29.0125 32.32 29.0125 32.32C29.0125 32.32 28.6425 39.81 31.9325 53.37C34.6025 64.37 44.5225 70.37 50.0725 73.81C55.6125 70.38 65.5425 64.32 68.2025 53.37C71.4925 39.81 71.1225 32.37 71.1225 32.37C71.1225 32.37 68.5725 31.62 61.3125 29.75C53.6225 27.71 50.0825 27 50.0825 27Z" fill="#424656"/>
<g filter="url(#filter0_d_1056_6673)">
<path d="M48.6023 58.0333L41.0014 50.4333L42.9016 48.5333L48.6023 54.2333L60.8371 42L62.7373 43.9L48.6023 58.0333Z" fill="#823189"/>
</g>
</g>
<defs>
<filter id="filter0_d_1056_6673" x="37.0014" y="42" width="29.7359" height="24.0333" filterUnits="userSpaceOnUse" color-interpolation-filters="sRGB">
<feFlood flood-opacity="0" result="BackgroundImageFix"/>
<feColorMatrix in="SourceAlpha" type="matrix" values="0 0 0 0 0 0 0 0 0 0 0 0 0 0 0 0 0 0 127 0" result="hardAlpha"/>
<feOffset dy="4"/>
<feGaussianBlur stdDeviation="2"/>
<feComposite in2="hardAlpha" operator="out"/>
<feColorMatrix type="matrix" values="0 0 0 0 0 0 0 0 0 0 0 0 0 0 0 0 0 0 0.25 0"/>
<feBlend mode="normal" in2="BackgroundImageFix" result="effect1_dropShadow_1056_6673"/>
<feBlend mode="normal" in="SourceGraphic" in2="effect1_dropShadow_1056_6673" result="shape"/>
</filter>
<clipPath id="clip0_1056_6673">
<rect width="42.135" height="46.81" fill="white" transform="translate(29 27)"/>
</clipPath>
</defs>
</svg>
