<?xml version="1.0" standalone="no"?>
<!DOCTYPE svg PUBLIC "-//W3C//DTD SVG 20010904//EN"
 "http://www.w3.org/TR/2001/REC-SVG-20010904/DTD/svg10.dtd">
<svg version="1.0" xmlns="http://www.w3.org/2000/svg"
 width="1163.000000pt" height="437.000000pt" viewBox="0 0 1163.000000 437.000000"
 preserveAspectRatio="xMidYMid meet">

<g transform="translate(0.000000,437.000000) scale(0.100000,-0.100000)"
fill="#000000" stroke="none">
<path d="M2253 4010 c-114 -23 -213 -104 -255 -207 l-23 -58 -3 -1389 c-3
-1543 -6 -1458 64 -1564 38 -57 98 -105 172 -137 45 -19 72 -20 702 -23 685
-3 729 -1 817 40 70 33 139 102 175 176 l33 67 3 425 3 425 -86 -88 -85 -88 0
-142 c0 -118 -4 -149 -19 -184 -38 -82 7 -78 -796 -78 -790 0 -754 -3 -792 68
-17 30 -18 102 -21 1112 -2 594 0 1104 3 1134 5 41 14 61 40 90 l33 36 719 3
c669 2 720 1 752 -15 71 -37 75 -51 82 -276 3 -111 7 -203 7 -205 6 -10 70
-42 85 -42 10 0 32 13 48 29 l29 29 0 274 c0 304 -6 349 -60 437 -37 60 -92
106 -163 135 -51 21 -62 21 -737 23 -377 0 -704 -3 -727 -7z m966 -209 c10 -7
11 -13 2 -30 -13 -24 -4 -24 -296 -21 -207 1 -233 6 -219 43 5 15 31 17 253
17 135 0 252 -4 260 -9z m-199 -2796 c40 -21 60 -53 60 -97 0 -75 -43 -118
-119 -118 -112 0 -153 153 -56 212 36 22 76 23 115 3z"/>
<path d="M3340 3159 c-14 -6 -61 -34 -105 -64 -77 -51 -206 -113 -270 -129
-16 -4 -91 -18 -165 -31 -164 -28 -184 -35 -211 -77 -19 -31 -20 -43 -16 -213
6 -199 26 -326 77 -485 87 -270 250 -491 471 -640 104 -69 172 -95 230 -85
128 22 387 229 518 415 150 212 221 436 243 765 9 142 9 178 -3 220 -19 66
-46 80 -211 111 -165 32 -262 69 -368 140 -131 88 -142 92 -190 73z m407 -576
c13 -20 14 -30 4 -63 -36 -120 -357 -447 -456 -466 -50 -9 -96 19 -203 120
-148 141 -179 199 -135 248 31 35 61 23 147 -60 44 -44 92 -86 106 -95 30 -21
72 -22 108 -3 29 15 184 171 267 270 73 86 127 102 162 49z"/>
<path d="M4830 2895 c-141 -32 -250 -109 -324 -229 -137 -219 -109 -510 66
-692 121 -126 308 -181 490 -143 65 14 161 59 208 98 l34 29 -57 71 c-32 39
-62 71 -68 71 -5 0 -26 -11 -47 -23 -174 -110 -393 -49 -475 132 -32 68 -31
226 1 295 33 72 82 127 143 161 49 27 63 30 144 30 78 0 98 -4 150 -28 33 -15
67 -35 76 -43 14 -13 22 -7 78 60 l61 74 -42 37 c-24 20 -59 45 -78 55 -98 50
-251 70 -360 45z"/>
<path d="M7487 2893 c-4 -3 -7 -240 -7 -525 l0 -518 95 0 95 0 0 363 0 362 56
-125 c31 -69 91 -201 133 -295 l77 -170 75 -3 74 -3 37 83 c145 324 216 479
222 485 3 3 6 -152 6 -345 l0 -352 95 0 95 0 0 524 0 524 -114 1 -113 2 -143
-323 c-79 -178 -146 -327 -150 -331 -4 -5 -40 67 -81 160 -40 92 -103 236
-139 318 -36 83 -69 156 -73 163 -9 13 -227 18 -240 5z"/>
<path d="M5603 2631 c-65 -17 -142 -62 -187 -111 -183 -196 -136 -527 92 -648
233 -124 512 -7 576 243 54 205 -32 404 -210 487 -54 25 -81 31 -152 34 -48 2
-101 -1 -119 -5z m209 -210 c77 -53 112 -153 89 -257 -42 -186 -291 -221 -375
-52 -60 120 -17 275 89 324 47 22 154 14 197 -15z"/>
<path d="M7271 2623 c-24 -8 -63 -34 -87 -57 l-44 -43 0 54 0 53 -95 0 -95 0
0 -390 0 -390 95 0 95 0 0 218 c0 214 0 219 26 270 35 71 76 94 175 100 l79 5
0 98 0 99 -52 -1 c-29 0 -73 -8 -97 -16z"/>
<path d="M8903 2625 c-106 -32 -189 -117 -228 -230 -37 -108 -29 -279 17 -369
29 -56 105 -134 159 -162 145 -73 333 -48 438 60 l39 41 -47 53 -47 54 -45
-30 c-126 -85 -282 -52 -333 70 -9 21 -16 42 -16 48 0 6 83 10 244 10 278 0
256 -8 256 95 0 75 -28 173 -69 236 -70 111 -234 166 -368 124z m186 -172 c28
-21 71 -96 71 -125 0 -17 -13 -18 -160 -18 l-160 0 6 28 c15 61 54 110 104
131 35 15 108 7 139 -16z"/>
<path d="M6070 2625 c0 -2 68 -176 150 -386 83 -210 150 -383 150 -385 0 -2
46 -4 103 -4 l103 0 46 118 c163 412 258 655 258 659 0 2 -46 2 -102 1 l-101
-3 -100 -273 -100 -274 -53 144 c-29 79 -73 203 -99 276 l-47 132 -104 0 c-57
0 -104 -2 -104 -5z"/>
</g>
</svg>
